<?xml version="1.0" encoding="utf-8"?>
<!-- Generator: Adobe Illustrator 16.0.0, SVG Export Plug-In . SVG Version: 6.00 Build 0)  -->
<!DOCTYPE svg PUBLIC "-//W3C//DTD SVG 1.1//EN" "http://www.w3.org/Graphics/SVG/1.1/DTD/svg11.dtd">
<svg version="1.1" id="Layer_1" xmlns="http://www.w3.org/2000/svg" xmlns:xlink="http://www.w3.org/1999/xlink" x="0px" y="0px"
	 width="180.598px" height="208.957px" viewBox="0 0 180.598 208.957" enable-background="new 0 0 180.598 208.957"
	 xml:space="preserve">
<g>
	<linearGradient id="SVGID_1_" gradientUnits="userSpaceOnUse" x1="7.7556" y1="100.4751" x2="172.8416" y2="100.4751">
		<stop  offset="0" style="stop-color:#E02829"/>
		<stop  offset="1" style="stop-color:#DD1F26"/>
	</linearGradient>
	<path fill="url(#SVGID_1_)" d="M132.101,42.499L29.678,78.718c-9.471,3.35-19.109,13.991-20.393,23.956
		c-1.737,13.435-1.917,26.689-0.93,39.461c0.771,10.013,10.314,17.722,20.352,17.315l129.621-5.266
		c10.038-0.408,16.324-8.673,14.048-18.457L153.38,54.149C151.102,44.363,141.577,39.149,132.101,42.499"/>
	<g>
		<path fill="#98C93F" d="M84.92,60.649c0,0,3.289-26.782-26.213-26.782C58.707,33.867,57.573,60.649,84.92,60.649"/>
		<path fill="#98C93F" d="M84.852,60.704c0,0,21.074,2.588,21.074-20.625C105.926,40.079,84.852,39.188,84.852,60.704"/>
		<path fill="#FFFFFF" d="M94.418,121.585c-3.109,3.228-7.475,5.248-12.314,5.248c-9.448,0-17.107-7.663-17.107-17.113
			c0-9.444,7.659-17.109,17.107-17.109c4.76,0,9.059,1.944,12.16,5.078l8.476-8.625c-5.282-5.275-12.576-8.541-20.636-8.541
			c-16.125,0-29.197,13.072-29.197,29.197c0,16.129,13.072,29.204,29.197,29.204c8.441,0,16.039-3.581,21.368-9.308l-8.772-8.031
			H94.418z"/>
		<g>
			<path fill="none" d="M51.768,70.907l29.523-10.442C70.16,60.649,59.932,64.516,51.768,70.907z"/>
			<path fill="none" d="M71.018,157.732c3.565,0.821,7.271,1.271,11.085,1.271c5.221,0,10.248-0.824,14.971-2.327L71.018,157.732z"
				/>
			<path fill="#FFFFFF" d="M118.281,143.169c5.557-6.003,9.63-13.387,11.657-21.586c0.907-3.691,1.411-7.547,1.436-11.519h-6.092
				h-5.54H99.199c-0.086,4.404-1.842,8.4-4.649,11.383l0.149,0.136h23.129c-1.711,5.166-4.509,9.834-8.129,13.734
				c-6.871,7.409-16.688,12.045-27.596,12.045c-20.788,0-37.638-16.848-37.638-37.643c0-20.786,16.851-37.638,37.638-37.638
				c10.364,0,19.744,4.187,26.553,10.958l8.15-8.296c-8.906-8.835-21.168-14.299-34.703-14.299c-0.272,0-0.54,0.018-0.812,0.02
				L51.768,70.907c-11.526,9.02-18.939,23.046-18.939,38.813c0,23.402,16.317,42.981,38.189,48.012l26.056-1.057
				C105.286,154.055,112.566,149.347,118.281,143.169z"/>
		</g>
	</g>
</g>
</svg>
