<?xml version="1.0" encoding="utf-8"?>
<!-- Generator: Adobe Illustrator 16.0.0, SVG Export Plug-In . SVG Version: 6.00 Build 0)  -->
<!DOCTYPE svg PUBLIC "-//W3C//DTD SVG 1.1//EN" "http://www.w3.org/Graphics/SVG/1.1/DTD/svg11.dtd">
<svg version="1.1" id="Layer_1" xmlns="http://www.w3.org/2000/svg" xmlns:xlink="http://www.w3.org/1999/xlink" x="0px" y="0px"
	 width="61.982px" height="12.717px" viewBox="0 0 61.982 12.717" enable-background="new 0 0 61.982 12.717" xml:space="preserve">
<g>
	<g>
		<path d="M20.727,6.448c-0.316-0.313-0.758-0.468-1.168-0.468c-1.064,0-1.609,0.779-1.604,1.62c0,0.856,0.545,1.594,1.604,1.594
			c0.39,0,0.795-0.135,1.106-0.42V7.756h-1.268V7.512h1.532v1.361c-0.379,0.379-0.831,0.587-1.371,0.587
			c-1.235,0-1.874-0.862-1.874-1.854c-0.006-1.137,0.768-1.88,1.874-1.88c0.478,0,0.961,0.183,1.329,0.546L20.727,6.448z"/>
		<path d="M25.199,7.601c-0.006,0.955-0.613,1.875-1.833,1.875c-1.221,0-1.834-0.925-1.834-1.886c0-0.976,0.608-1.869,1.834-1.869
			C24.59,5.721,25.204,6.619,25.199,7.601z M21.807,7.596c0.005,0.82,0.524,1.62,1.559,1.62c1.038,0,1.563-0.8,1.563-1.62
			c0-0.842-0.52-1.615-1.563-1.615C22.322,5.98,21.802,6.738,21.807,7.596z"/>
		<path d="M29.374,7.601c-0.006,0.955-0.613,1.875-1.834,1.875c-1.22,0-1.833-0.925-1.833-1.886c0-0.976,0.607-1.869,1.833-1.869
			S29.378,6.619,29.374,7.601z M25.982,7.596c0.005,0.82,0.524,1.62,1.558,1.62c1.039,0,1.563-0.8,1.563-1.62
			c0-0.842-0.52-1.615-1.563-1.615C26.497,5.98,25.977,6.738,25.982,7.596z"/>
		<path d="M33.085,7.554c0.021,0.925-0.571,1.859-1.844,1.859c-0.41,0-0.82,0-1.23,0V5.777c0.41,0,0.82,0,1.23,0
			C32.473,5.777,33.065,6.66,33.085,7.554z M30.292,6.043v3.1h0.95c1.08,0,1.579-0.81,1.563-1.589
			c-0.016-0.758-0.515-1.511-1.563-1.511H30.292z"/>
		<path d="M33.843,5.777l2.446,3.007V5.777h0.275v3.636h-0.109l-2.451-3.002v3.002h-0.28V5.777H33.843z"/>
		<path d="M37.65,7.455h2.129V7.71H37.65v1.433h2.295v0.271h-2.57V5.777h2.508v0.266H37.65V7.455z"/>
		<path d="M43.029,6.479c-0.265-0.426-0.69-0.487-1.101-0.493c-0.426,0-1.101,0.156-1.101,0.737c0,0.462,0.498,0.571,1.11,0.686
			c0.701,0.135,1.429,0.26,1.429,1.044c-0.005,0.82-0.831,1.018-1.438,1.018c-0.566,0-1.21-0.233-1.49-0.789l0.249-0.125
			c0.224,0.441,0.795,0.66,1.241,0.66s1.158-0.125,1.158-0.769c0.005-0.546-0.598-0.665-1.194-0.779
			c-0.665-0.13-1.346-0.265-1.346-0.935c-0.016-0.769,0.784-1.008,1.382-1.008c0.52,0,0.971,0.083,1.329,0.618L43.029,6.479z"/>
		<path d="M46.316,6.479c-0.265-0.426-0.691-0.487-1.101-0.493c-0.427,0-1.102,0.156-1.102,0.737c0,0.462,0.499,0.571,1.111,0.686
			c0.701,0.135,1.429,0.26,1.429,1.044c-0.006,0.82-0.831,1.018-1.438,1.018c-0.566,0-1.21-0.233-1.49-0.789l0.249-0.125
			c0.223,0.441,0.794,0.66,1.241,0.66c0.446,0,1.157-0.125,1.157-0.769c0.006-0.546-0.597-0.665-1.194-0.779
			c-0.664-0.13-1.345-0.265-1.345-0.935c-0.016-0.769,0.784-1.008,1.382-1.008c0.519,0,0.971,0.083,1.329,0.618L46.316,6.479z"/>
		<path d="M51.674,8.909c-0.363,0.363-0.847,0.545-1.324,0.545c-1.226,0-1.864-0.856-1.869-1.838
			c-0.011-0.972,0.623-1.88,1.869-1.88c0.478,0,0.961,0.182,1.324,0.545l-0.192,0.167C51.17,6.136,50.76,5.985,50.35,5.985
			c-1.06,0-1.604,0.748-1.6,1.62c0.011,0.852,0.551,1.589,1.6,1.589c0.41,0,0.826-0.155,1.138-0.462L51.674,8.909z"/>
		<path d="M55.06,9.413l-0.4-0.894h-2.17l-0.395,0.894h-0.302l1.631-3.636h0.306l1.631,3.636H55.06z M54.551,8.26l-0.977-2.212
			L52.598,8.26H54.551z"/>
		<path d="M58.726,9.413h-0.369L57.1,8.037h-0.991v1.376h-0.281V5.777c0.535,0,1.065,0,1.6,0c0.789,0,1.189,0.566,1.194,1.133
			c0.006,0.592-0.384,1.111-1.179,1.111L58.726,9.413z M56.109,7.771h1.287c0.634,0,0.914-0.357,0.92-0.867
			c0.005-0.426-0.286-0.867-0.889-0.867h-1.318V7.771z"/>
		<path d="M60.387,6.032h-1.313V5.783h2.908v0.249h-1.314v3.381h-0.28V6.032z"/>
	</g>
	<g>
		<linearGradient id="SVGID_1_" gradientUnits="userSpaceOnUse" x1="-4.882813e-004" y1="6.7222" x2="15.7725" y2="6.7222">
			<stop  offset="0" style="stop-color:#E02829"/>
			<stop  offset="1" style="stop-color:#DD1F26"/>
		</linearGradient>
		<path fill="url(#SVGID_1_)" d="M11.879,1.183L2.094,4.644C1.189,4.964,0.268,5.98,0.146,6.933c-0.166,1.283-0.183,2.55-0.089,3.77
			c0.074,0.957,0.986,1.693,1.945,1.654l12.384-0.503c0.959-0.039,1.561-0.828,1.343-1.763l-1.815-7.795
			C13.695,1.361,12.785,0.863,11.879,1.183"/>
		<g>
			<path fill="#98C93F" d="M7.372,2.917c0,0,0.314-2.559-2.504-2.559C4.868,0.358,4.759,2.917,7.372,2.917"/>
			<path fill="#98C93F" d="M7.366,2.922c0,0,2.014,0.248,2.014-1.97C9.379,0.952,7.366,0.866,7.366,2.922"/>
			<path fill="#FFFFFF" d="M8.28,8.739C7.982,9.048,7.566,9.24,7.103,9.24c-0.902,0-1.635-0.732-1.635-1.635
				s0.732-1.635,1.635-1.635c0.455,0,0.865,0.186,1.162,0.485l0.81-0.824C8.57,5.128,7.874,4.816,7.103,4.816
				c-1.541,0-2.79,1.248-2.79,2.789s1.249,2.79,2.79,2.79c0.807,0,1.532-0.342,2.041-0.889L8.306,8.739H8.28z"/>
			<g>
				<path fill="none" d="M4.205,3.897l2.82-0.998C5.962,2.917,4.985,3.286,4.205,3.897z"/>
				<path fill="none" d="M6.043,12.192c0.341,0.079,0.695,0.121,1.06,0.121c0.499,0,0.979-0.078,1.431-0.222L6.043,12.192z"/>
				<path fill="#FFFFFF" d="M10.56,10.801c0.53-0.573,0.92-1.278,1.113-2.062c0.087-0.353,0.135-0.722,0.137-1.101h-0.582h-0.529
					H8.736C8.728,8.06,8.56,8.44,8.292,8.726l0.015,0.014h2.21c-0.163,0.493-0.431,0.939-0.776,1.312
					c-0.657,0.708-1.595,1.151-2.637,1.151c-1.986,0-3.596-1.61-3.596-3.597S5.117,4.01,7.103,4.01c0.99,0,1.887,0.399,2.537,1.047
					l0.778-0.793C9.568,3.42,8.396,2.897,7.103,2.897c-0.026,0-0.052,0.002-0.078,0.002l-2.82,0.998
					C3.104,4.759,2.395,6.1,2.395,7.605c0,2.236,1.559,4.106,3.648,4.587l2.49-0.101C9.318,11.842,10.013,11.392,10.56,10.801z"/>
			</g>
		</g>
	</g>
</g>
</svg>
